<svg width="279.998535" height="242.998047" viewBox="0 0 279.999 242.998" fill="none" xmlns="http://www.w3.org/2000/svg" xmlns:xlink="http://www.w3.org/1999/xlink">
	<desc>
			Created with Pixso.
	</desc>
	<defs/>
	<g opacity="0.270000">
		<g opacity="0.270000">
			<path id="Path" d="M231.45 110.128C224.659 108.1 217.614 107.053 210.528 107.017C201.498 106.991 192.562 108.856 184.295 112.49C190.889 87.908 206.729 45.49 238.287 40.7139C239.728 40.4878 241.072 39.8489 242.158 38.8743C243.243 37.8997 244.022 36.6313 244.402 35.2229L251.302 10.103C251.59 9.05396 251.654 7.95605 251.49 6.88037C251.326 5.80493 250.937 4.77612 250.349 3.86084C249.768 2.95483 248.999 2.18457 248.093 1.60254C247.188 1.02051 246.168 0.640381 245.103 0.488037C242.764 0.164062 240.405 0.00146484 238.043 0.000976562C200.166 0.000976562 162.653 40.26 146.824 97.9009C137.532 131.719 134.808 182.563 157.696 214.566C170.504 232.473 189.19 242.036 213.235 242.991C213.334 242.991 213.43 242.997 213.528 242.997C243.197 242.997 269.505 222.651 277.508 193.524C282.305 176.245 280.118 157.772 271.417 142.091C267.181 134.399 261.471 127.618 254.613 122.134C247.755 116.649 239.884 112.57 231.45 110.128Z" fill="#9EB6D2" fill-opacity="1.000000" fill-rule="evenodd"/>
		</g>
		<g opacity="0.270000">
			<path id="Path" d="M131.416 142.095C127.181 134.402 121.471 127.619 114.613 122.134C107.755 116.648 99.8838 112.568 91.4487 110.126C84.6587 108.099 77.6147 107.052 70.5288 107.016C61.4976 106.991 52.561 108.855 44.293 112.488C50.8867 87.906 66.7285 45.488 98.293 40.7141C99.7334 40.4871 101.078 39.8477 102.163 38.873C103.248 37.8984 104.027 36.6301 104.407 35.2219L111.307 10.103C111.595 9.05396 111.659 7.95581 111.494 6.88037C111.33 5.80493 110.941 4.77612 110.353 3.86108C109.773 2.95435 109.004 2.18359 108.099 1.60156C107.193 1.01929 106.173 0.639648 105.108 0.488037C102.77 0.163818 100.412 0.000732422 98.0518 0C60.1729 0 22.6597 40.259 6.82764 97.8999C-2.46143 131.718 -5.18604 182.562 17.7046 214.57C30.5107 232.47 49.1997 242.04 73.2417 242.992C73.3418 242.992 73.4365 242.998 73.5415 242.998C103.207 242.998 129.519 222.653 137.522 193.525C142.31 176.244 140.117 157.774 131.416 142.095Z" fill="#9EB6D2" fill-opacity="1.000000" fill-rule="evenodd"/>
		</g>
	</g>
</svg>
