<svg width="42.000000" height="40.250610" viewBox="0 0 42 40.2506" fill="none" xmlns="http://www.w3.org/2000/svg" xmlns:xlink="http://www.w3.org/1999/xlink">
	<path id="Vector" d="M21 0C9.39746 0 0 9.23999 0 20.636C0 29.7552 6.0166 37.4885 14.3589 40.215C15.4087 40.4093 15.7939 39.7705 15.7939 39.2228C15.7939 38.7328 15.7764 37.4342 15.7676 35.714C9.92578 36.9583 8.69385 32.9456 8.69385 32.9456C7.73828 30.5637 6.35791 29.9268 6.35791 29.9268C4.45557 28.6475 6.50488 28.6737 6.50488 28.6737C8.61328 28.8173 9.72119 30.8 9.72119 30.8C11.5938 33.9552 14.6372 33.0435 15.8374 32.5167C16.0264 31.1815 16.5674 30.2732 17.1675 29.757C12.5039 29.2407 7.60205 27.4663 7.60205 19.5597C7.60205 17.3075 8.41553 15.4666 9.76318 14.0227C9.52686 13.5012 8.81836 11.403 9.94678 8.56104C9.94678 8.56104 11.7056 8.00806 15.7222 10.6768C17.4019 10.2183 19.187 9.99072 20.9722 9.98022C22.7568 9.99072 24.542 10.2183 26.2222 10.6768C30.2119 8.00806 31.9707 8.56104 31.9707 8.56104C33.0996 11.403 32.3906 13.5012 32.1807 14.0227C33.5195 15.4666 34.333 17.3075 34.333 19.5597C34.333 27.4873 29.4243 29.2321 24.752 29.7395C25.4868 30.359 26.1694 31.6243 26.1694 33.558C26.1694 36.3195 26.1431 38.5385 26.1431 39.2087C26.1431 39.7495 26.5107 40.3953 27.5869 40.1887C35.9888 37.4797 42 29.7412 42 20.636C42 9.23999 32.5972 0 21 0Z" fill="#212121" fill-opacity="1.000000" fill-rule="nonzero"/>
</svg>
