<svg width="32.000000" height="31.929565" viewBox="0 0 32 31.9296" fill="none" xmlns="http://www.w3.org/2000/svg" xmlns:xlink="http://www.w3.org/1999/xlink">
	<path id="XMLID_802_" d="M7.44873 10.2595L1.0249 10.2595C0.739746 10.2595 0.508789 10.4906 0.508789 10.7756L0.508789 31.4133C0.508789 31.6985 0.739746 31.9294 1.0249 31.9294L7.44873 31.9294C7.73389 31.9294 7.96533 31.6985 7.96533 31.4133L7.96533 10.7756C7.96533 10.4906 7.73389 10.2595 7.44873 10.2595Z" fill="#000000" fill-opacity="1.000000" fill-rule="nonzero"/>
	<path id="XMLID_803_" d="M4.23926 0C1.90186 0 0 1.89954 0 4.23438C0 6.57031 1.90186 8.47058 4.23926 8.47058C6.57471 8.47058 8.47461 6.57019 8.47461 4.23438C8.47461 1.89954 6.57471 0 4.23926 0Z" fill="#000000" fill-opacity="1.000000" fill-rule="nonzero"/>
	<path id="XMLID_804_" d="M23.7886 9.74658C21.2085 9.74658 19.3013 10.8557 18.1445 12.116L18.1445 10.7756C18.1445 10.4906 17.9136 10.2595 17.6284 10.2595L11.4761 10.2595C11.1909 10.2595 10.96 10.4906 10.96 10.7756L10.96 31.4133C10.96 31.6985 11.1909 31.9294 11.4761 31.9294L17.8862 31.9294C18.1714 31.9294 18.4023 31.6985 18.4023 31.4133L18.4023 21.2025C18.4023 17.7616 19.3369 16.4211 21.7354 16.4211C24.3477 16.4211 24.5552 18.5701 24.5552 21.3795L24.5552 31.4135C24.5552 31.6986 24.7861 31.9296 25.0713 31.9296L31.4839 31.9296C31.769 31.9296 32 31.6986 32 31.4135L32 20.0933C32 14.9769 31.0244 9.74658 23.7886 9.74658Z" fill="#000000" fill-opacity="1.000000" fill-rule="nonzero"/>
</svg>
