<svg style="width:0; height:0; visibility: hidden;" xmlns="http://www.w3.org/2000/svg">


<!-- ln -->
<symbol id="svg-ln" viewBox="0 0 32 32">
    <g>
	    <path id="XMLID_802_" d="M7.44873 10.2595L1.0249 10.2595C0.739746 10.2595 0.508789 10.4906 0.508789 10.7756L0.508789 31.4133C0.508789 31.6985 0.739746 31.9294 1.0249 31.9294L7.44873 31.9294C7.73389 31.9294 7.96533 31.6985 7.96533 31.4133L7.96533 10.7756C7.96533 10.4906 7.73389 10.2595 7.44873 10.2595Z"  fill-opacity="1.000000" fill-rule="nonzero"/>
	    <path id="XMLID_803_" d="M4.23926 0C1.90186 0 0 1.89954 0 4.23438C0 6.57031 1.90186 8.47058 4.23926 8.47058C6.57471 8.47058 8.47461 6.57019 8.47461 4.23438C8.47461 1.89954 6.57471 0 4.23926 0Z"  fill-opacity="1.000000" fill-rule="nonzero"/>
	    <path id="XMLID_804_" d="M23.7886 9.74658C21.2085 9.74658 19.3013 10.8557 18.1445 12.116L18.1445 10.7756C18.1445 10.4906 17.9136 10.2595 17.6284 10.2595L11.4761 10.2595C11.1909 10.2595 10.96 10.4906 10.96 10.7756L10.96 31.4133C10.96 31.6985 11.1909 31.9294 11.4761 31.9294L17.8862 31.9294C18.1714 31.9294 18.4023 31.6985 18.4023 31.4133L18.4023 21.2025C18.4023 17.7616 19.3369 16.4211 21.7354 16.4211C24.3477 16.4211 24.5552 18.5701 24.5552 21.3795L24.5552 31.4135C24.5552 31.6986 24.7861 31.9296 25.0713 31.9296L31.4839 31.9296C31.769 31.9296 32 31.6986 32 31.4135L32 20.0933C32 14.9769 31.0244 9.74658 23.7886 9.74658Z"  fill-opacity="1.000000" fill-rule="nonzero"/>
    </g>
</symbol>

<!-- git -->
<symbol id="svg-git" viewBox="0 0 42 42">
    <g>
    <path id="Vector" d="M21 0C9.39746 0 0 9.23999 0 20.636C0 29.7552 6.0166 37.4885 14.3589 40.215C15.4087 40.4093 15.7939 39.7705 15.7939 39.2228C15.7939 38.7328 15.7764 37.4342 15.7676 35.714C9.92578 36.9583 8.69385 32.9456 8.69385 32.9456C7.73828 30.5637 6.35791 29.9268 6.35791 29.9268C4.45557 28.6475 6.50488 28.6737 6.50488 28.6737C8.61328 28.8173 9.72119 30.8 9.72119 30.8C11.5938 33.9552 14.6372 33.0435 15.8374 32.5167C16.0264 31.1815 16.5674 30.2732 17.1675 29.757C12.5039 29.2407 7.60205 27.4663 7.60205 19.5597C7.60205 17.3075 8.41553 15.4666 9.76318 14.0227C9.52686 13.5012 8.81836 11.403 9.94678 8.56104C9.94678 8.56104 11.7056 8.00806 15.7222 10.6768C17.4019 10.2183 19.187 9.99072 20.9722 9.98022C22.7568 9.99072 24.542 10.2183 26.2222 10.6768C30.2119 8.00806 31.9707 8.56104 31.9707 8.56104C33.0996 11.403 32.3906 13.5012 32.1807 14.0227C33.5195 15.4666 34.333 17.3075 34.333 19.5597C34.333 27.4873 29.4243 29.2321 24.752 29.7395C25.4868 30.359 26.1694 31.6243 26.1694 33.558C26.1694 36.3195 26.1431 38.5385 26.1431 39.2087C26.1431 39.7495 26.5107 40.3953 27.5869 40.1887C35.9888 37.4797 42 29.7412 42 20.636C42 9.23999 32.5972 0 21 0Z" fill-opacity="1.000000" fill-rule="nonzero"/>
    </g>
</symbol>

<!-- telegram -->
<symbol id="svg-tg" viewBox="0 0 48 48">
    <g>
        <g clip-path="url(#clip0_122_1087)">
            <path d="M24 48C37.2548 48 48 37.2548 48 24C48 10.7452 37.2548 0 24 0C10.7452 0 0 10.7452 0 24C0 37.2548 10.7452 48 24 48Z"/>
            <path d="M10.9815 23.48L34.1216 14.558C35.1956 14.17 36.1336 14.82 35.7856 16.444L35.7875 16.442L31.8475 35.004C31.5555 36.32 30.7736 36.64 29.6796 36.02L23.6796 31.598L20.7855 34.386C20.4655 34.706 20.1955 34.976 19.5755 34.976L20.0015 28.87L31.1215 18.824C31.6056 18.398 31.0135 18.158 30.3755 18.582L16.6336 27.234L10.7095 25.386C9.42355 24.978 9.39555 24.1 10.9815 23.48Z" fill='white'/>
        </g>
    </g>
</symbol>

<!-- vk -->
<symbol id="svg-vk" viewBox="0 0 48 48">
    <g>
        <path d="M24 48C37.2548 48 48 37.2548 48 24C48 10.7452 37.2548 0 24 0C10.7452 0 0 10.7452 0 24C0 37.2548 10.7452 48 24 48Z"/>
        <path fill-rule="evenodd" clip-rule="evenodd" d="M23.0933 34.5261H24.977C24.977 34.5261 25.546 34.4637 25.8365 34.1505C26.1039 33.863 26.0953 33.3231 26.0953 33.3231C26.0953 33.3231 26.0585 30.7955 27.2316 30.4233C28.388 30.0567 29.873 32.8662 31.447 33.9464C32.6372 34.764 33.5416 34.5847 33.5416 34.5847L37.7501 34.5261C37.7501 34.5261 39.9517 34.3905 38.9078 32.6595C38.8222 32.5179 38.2998 31.3791 35.7787 29.0389C33.1399 26.5896 33.4933 26.9858 36.672 22.749C38.6079 20.1688 39.3818 18.5936 39.1401 17.9189C38.9095 17.2763 37.4857 17.4462 37.4857 17.4462L32.7471 17.4757C32.7471 17.4757 32.3959 17.4278 32.1353 17.5835C31.8808 17.7362 31.7169 18.0922 31.7169 18.0922C31.7169 18.0922 30.967 20.0888 29.9667 21.7869C27.8567 25.3699 27.013 25.559 26.6682 25.3365C25.866 24.818 26.0662 23.2534 26.0662 22.142C26.0662 18.6697 26.5929 17.222 25.0408 16.8472C24.5257 16.7227 24.1466 16.6406 22.8293 16.6273C21.1386 16.6098 19.7075 16.6324 18.8972 17.0295C18.3582 17.2934 17.9423 17.8817 18.1956 17.9155C18.5088 17.9574 19.2181 18.1067 19.5941 18.6188C20.0797 19.2794 20.0626 20.7631 20.0626 20.7631C20.0626 20.7631 20.3416 24.8505 19.411 25.3583C18.7723 25.7066 17.8961 24.9955 16.015 21.7449C15.0511 20.0798 14.3234 18.2394 14.3234 18.2394C14.3234 18.2394 14.183 17.8954 13.9328 17.7114C13.629 17.4885 13.2046 17.4175 13.2046 17.4175L8.70178 17.447C8.70178 17.447 8.02582 17.4658 7.77768 17.7598C7.55693 18.0212 7.76014 18.5619 7.76014 18.5619C7.76014 18.5619 11.2854 26.8095 15.277 30.9658C18.937 34.7764 23.0933 34.5261 23.0933 34.5261Z" fill="white"/>
    </g>
</symbol>

<!-- facbook -->
<symbol id="svg-fb" viewBox="0 0 48 48">
    <g>
        <clipPath id="clip122_1083">
			<rect id="facebook 1" width="48.000000" height="48.000000" fill="white" fill-opacity="0"/>
		</clipPath>
	    <rect id="facebook 1" width="48.000000" height="48.000000" fill="#FFFFFF" fill-opacity="0"/>
	    <g clip-path="url(#clip122_1083)">
	        <path id="Vector" d="M24 0C37.2554 0 48 10.746 48 24.0001C48 37.2557 37.2554 48 24 48C10.7441 48 0 37.2555 0 24.0001C0 10.746 10.7446 0 24 0Z" fill-opacity="1.000000" fill-rule="nonzero"/>
		    <path id="Vector" d="M26.9219 16.5224L30.0151 16.5224L30.0151 11.9534L26.3789 11.9534L26.3789 11.9698C21.9736 12.1259 21.0703 14.6023 20.9907 17.2034L20.9819 17.2034L20.9819 19.4849L17.9819 19.4849L17.9819 23.9593L20.9819 23.9593L20.9819 35.9533L25.5029 35.9533L25.5029 23.9593L29.2065 23.9593L29.9219 19.4849L25.5044 19.4849L25.5044 18.1065C25.5044 17.2274 26.0894 16.5224 26.9219 16.5224Z" fill="#FFFFFF" fill-opacity="1.000000" fill-rule="nonzero"/>
        </g>
    </g>
</symbol>


<!-- whatsapp -->
<symbol id="svg-wa" viewBox="0 0 48 48">
    <g>
        <g clip-path="url(#clip0_122_1097)">
            <path d="M23.9871 0.0126382C10.7401 0.015449 0.00357906 10.7566 0.00638989 24.0036C0.00732684 28.5906 1.32364 33.0811 3.79905 36.9428L0.0672913 46.6251C-0.131435 47.1401 0.124914 47.7186 0.639859 47.9174C0.755009 47.9618 0.877281 47.9845 1.00068 47.9843C1.11517 47.9849 1.22882 47.9653 1.33648 47.9263L11.3306 44.3585C22.5751 51.3617 37.3677 47.9234 44.3709 36.6788C51.374 25.4342 47.9357 10.6416 36.6912 3.63852C32.8795 1.26449 28.4778 0.00823454 23.9871 0.0126382Z" />
            <path d="M35.422 28.098C35.422 28.098 32.9735 26.8987 31.4404 26.0992C29.7054 25.2057 27.6666 26.8787 26.7072 27.8302C25.214 27.2566 23.8502 26.3908 22.6956 25.2837C21.5882 24.1292 20.7225 22.7654 20.1491 21.272C21.1005 20.3106 22.7695 18.2738 21.8801 16.5389C21.0905 15.0038 19.8813 12.5572 19.8813 12.5552C19.7116 12.2185 19.3669 12.0059 18.9898 12.0055H16.991C14.0801 12.5083 11.9636 15.0482 11.994 18.002C11.994 21.1401 15.7497 27.1686 18.2823 29.703C20.8148 32.2375 26.8433 35.9913 29.9833 35.9913C32.9371 36.0217 35.477 33.9051 35.9798 30.9943V28.9955C35.9801 28.6144 35.7638 28.2663 35.422 28.098Z" fill="#FAFAFA"/>
        </g>
        <defs>
            <clipPath id="clip0_122_1097">
                <rect width="48" height="48" fill="white"/>
            </clipPath>
        </defs>
    </g>
</symbol>   
</svg>
