<?xml version="1.0" standalone="no"?>
<!DOCTYPE svg PUBLIC "-//W3C//DTD SVG 20010904//EN"
 "http://www.w3.org/TR/2001/REC-SVG-20010904/DTD/svg10.dtd">
<svg version="1.0" xmlns="http://www.w3.org/2000/svg"
 width="512.000000pt" height="512.000000pt" viewBox="0 0 512.000000 512.000000"
 preserveAspectRatio="xMidYMid meet">
<metadata>
Created by potrace 1.14, written by Peter Selinger 2001-2017
</metadata>
<g transform="translate(0.000000,512.000000) scale(0.100000,-0.100000)"
fill="#000000" stroke="none">
<path d="M1130 5113 c-322 -51 -547 -160 -748 -363 -207 -210 -305 -464 -299
-775 4 -154 14 -192 62 -213 42 -19 67 -14 131 24 170 104 379 190 594 247
183 49 261 57 546 57 l251 0 -3 -362 c-2 -200 -5 -383 -8 -408 -3 -25 -8 -67
-11 -95 -18 -160 -75 -394 -129 -535 -95 -246 -212 -424 -417 -635 -323 -333
-362 -373 -435 -460 -255 -301 -367 -552 -359 -807 4 -115 10 -153 41 -248 74
-223 250 -407 467 -488 31 -12 67 -24 79 -26 13 -3 34 -8 48 -11 14 -4 69 -8
122 -11 325 -13 586 159 787 521 34 60 61 113 61 117 0 4 11 31 24 60 73 160
152 480 201 808 9 65 36 255 40 285 2 17 11 80 19 140 8 61 18 135 21 165 3
30 8 71 10 90 6 47 16 155 20 211 3 42 11 143 20 269 16 222 23 534 24 1023
l1 397 287 -2 287 -3 1 -1595 c2 -1740 -1 -1648 59 -1819 106 -304 362 -546
666 -631 108 -29 158 -35 310 -33 110 1 153 6 235 27 319 83 541 285 638 581
9 28 19 66 23 85 3 19 9 58 14 85 16 91 5 281 -22 370 -27 90 -79 190 -132
251 -64 74 -191 145 -290 162 -67 11 -248 7 -291 -7 -135 -45 -200 -92 -317
-232 -74 -88 -154 -117 -216 -79 -18 11 -37 32 -42 46 -6 16 -10 534 -10 1409
l0 1384 151 3 151 3 24 30 c13 17 24 38 24 48 0 15 13 17 124 17 l124 0 11
-33 c12 -35 55 -67 91 -67 44 0 99 46 100 83 0 15 13 17 123 17 l123 0 17 -38
c9 -22 28 -44 42 -50 31 -14 352 -16 388 -3 13 5 32 21 41 36 17 25 18 62 18
464 0 278 -4 446 -11 463 -24 62 116 58 -1973 57 -1047 -1 -1914 -4 -1928 -6z"/>
</g>
</svg>
